<svg xmlns="http://www.w3.org/2000/svg" viewBox="0 0 79.05 64"><defs><style>.fb97dee0-f9b1-4eb4-ab2b-752410e3b2fb{fill:#fff;}</style></defs><g id="edb51216-11b2-4821-8da2-2f994184e011" data-name="Layer 2"><g id="f3a3142d-dfc9-4f94-a905-71b62e1de622" data-name="Profile"><path class="fb97dee0-f9b1-4eb4-ab2b-752410e3b2fb" d="M41,57.5A4.7,4.7,0,0,0,40.28,56a5,5,0,0,0-4-2l-.48,0a5.15,5.15,0,0,0-1.19.27,5.05,5.05,0,0,0-2.42,1.82A5,5,0,0,0,36.25,64l.48,0a5,5,0,0,0,4.52-5.1c0-.12,0-.24,0-.36A4.86,4.86,0,0,0,41,57.5Z"/><path class="fb97dee0-f9b1-4eb4-ab2b-752410e3b2fb" d="M67.64,52.42a4.76,4.76,0,0,0-1.23-.73,5,5,0,0,0-1.76-.39h-.17a3.87,3.87,0,0,0-.48,0,5,5,0,0,0-4.47,4.2,5.28,5.28,0,0,0,0,1.26,1,1,0,0,0,0,.16,5,5,0,0,0,5,4.37l.48,0a5,5,0,0,0,2.69-8.87Z"/><path class="fb97dee0-f9b1-4eb4-ab2b-752410e3b2fb" d="M20.74,25.65,19.92,17A8.11,8.11,0,0,0,11.87,9.7c-.25,0-.51,0-.77,0l-7.73.74a3.73,3.73,0,0,0,.35,7.44l.36,0,7.72-.74h.07a.65.65,0,0,1,.63.57l.82,8.63A31.08,31.08,0,0,0,14.13,31a3.92,3.92,0,0,1,1.66-1l5.37-1.66A23.73,23.73,0,0,1,20.74,25.65Z"/><path class="fb97dee0-f9b1-4eb4-ab2b-752410e3b2fb" d="M78.91,21.4l-.46-4.74a3.94,3.94,0,0,0-3.93-3.58l-.38,0a4,4,0,0,0-3.56,4.31L71,22.15c.07.68.1,1.35.11,2a24.32,24.32,0,0,1-22,24.5,22.65,22.65,0,0,1-2.32.11A24.2,24.2,0,0,1,31,42.87l-.67,1.93a4.18,4.18,0,0,1-7.84.14L21,41.29l-2.4-1.22a32.43,32.43,0,0,0,13,12.82,7.54,7.54,0,0,1,3.87-1.51c.24,0,.49,0,.73,0h0a7.59,7.59,0,0,1,7.22,5.17,33,33,0,0,0,3.31.17c1,0,2.05,0,3.08-.14a32.19,32.19,0,0,0,7.07-1.5,7.62,7.62,0,0,1,6.81-6.36c.24,0,.49,0,.73,0h0a7.69,7.69,0,0,1,2.93.58A32.24,32.24,0,0,0,78.91,21.4Z"/><path class="fb97dee0-f9b1-4eb4-ab2b-752410e3b2fb" d="M63.86,20.14a13.18,13.18,0,0,0-4.11-1.81,9.43,9.43,0,0,0,4.75-9.2c-.58-6.09-6.17-10-17.25-9L33,1.53a7.26,7.26,0,0,0-6.54,7.91L28,25.51c.05.25.09.5.14.75l3-.93a3.7,3.7,0,0,1,1-.16,3.5,3.5,0,0,1,3.29,4.64l-2.06,5.92.32.3a18.07,18.07,0,0,0,12.14,4.69,16.69,16.69,0,0,0,1.73-.08A18.14,18.14,0,0,0,63.93,20.87ZM40,10.42l6.31-.6c3-.29,4.52.61,4.71,2.56s-1.1,3.12-4.14,3.41l-6.31.6ZM50.17,30.89,42,31.66l-.6-6.31,8.15-.78c3-.28,4.58.67,4.78,2.73S53.16,30.6,50.17,30.89Z"/><path class="fb97dee0-f9b1-4eb4-ab2b-752410e3b2fb" d="M30.46,28.41a1.63,1.63,0,0,0-.53.08L18.24,32.1A1.77,1.77,0,0,0,18,35.37l4.48,2.26a1.78,1.78,0,0,1,.85.94l1.48,3.81a1.77,1.77,0,0,0,3.32-.06l4-11.56A1.77,1.77,0,0,0,30.46,28.41Z"/></g></g></svg>