<svg xmlns="http://www.w3.org/2000/svg" viewBox="0 0 228.78 189.33"><defs><style>.a72a31ee-3f24-4149-aa74-771e0d0f9e1b{fill:#436171;}.bc883ff1-ebc3-48bb-ab4d-f3f73aafdabf{fill:#9bc7ea;}</style></defs><g id="a8d981cc-4aa9-421d-90a0-b30b58660545" data-name="Layer 2"><g id="ad23f546-4844-46ac-bf2c-a009b61a6190" data-name="Profile"><path class="a72a31ee-3f24-4149-aa74-771e0d0f9e1b" d="M91.76,99.84a8.47,8.47,0,0,0-1.3-2.58,8.71,8.71,0,0,0-7-3.54,7.81,7.81,0,0,0-.83,0,8.69,8.69,0,0,0-2.06.46,8.62,8.62,0,0,0-4.2,3.16,8.7,8.7,0,0,0,7.07,13.74c.28,0,.56,0,.84,0a8.7,8.7,0,0,0,7.86-8.86c0-.21,0-.42,0-.63A8.36,8.36,0,0,0,91.76,99.84Z" transform="translate(-3.64)"/><path class="a72a31ee-3f24-4149-aa74-771e0d0f9e1b" d="M138,91a8.32,8.32,0,0,0-2.12-1.28,8.57,8.57,0,0,0-3.07-.67l-.29,0c-.27,0-.55,0-.83,0a8.69,8.69,0,0,0-7.76,7.3,8.8,8.8,0,0,0-.08,2.18c0,.1,0,.19,0,.28a8.7,8.7,0,0,0,8.61,7.6c.28,0,.56,0,.84,0A8.69,8.69,0,0,0,138,91Z" transform="translate(-3.64)"/><path class="a72a31ee-3f24-4149-aa74-771e0d0f9e1b" d="M56.53,44.53l-1.43-15a14.06,14.06,0,0,0-14-12.71c-.44,0-.89,0-1.34.06L26.38,18.19A6.47,6.47,0,0,0,27,31.1l.62,0L41,29.8h.1a1.11,1.11,0,0,1,1.1,1l1.43,15a52.52,52.52,0,0,0,1.41,8.1,6.77,6.77,0,0,1,2.88-1.76l9.32-2.88A39.85,39.85,0,0,1,56.53,44.53Z" transform="translate(-3.64)"/><path class="a72a31ee-3f24-4149-aa74-771e0d0f9e1b" d="M157.52,37.15l-.79-8.23a6.85,6.85,0,0,0-6.82-6.21q-.33,0-.66,0a6.86,6.86,0,0,0-6.18,7.48l.78,8.23c.11,1.18.16,2.35.18,3.51a42.28,42.28,0,0,1-38.22,42.55c-1.36.13-2.7.19-4,.19a42,42,0,0,1-15.2-2.85,42.45,42.45,0,0,1-12.32-7.42l-1.16,3.34a7.25,7.25,0,0,1-13.6.25L57,71.69l-4.18-2.11A56.4,56.4,0,0,0,75.49,91.82a13.16,13.16,0,0,1,6.71-2.61c.43,0,.85-.07,1.27-.07h0a13.2,13.2,0,0,1,12.55,9,54.45,54.45,0,0,0,5.74.31c1.77,0,3.55-.08,5.35-.26a55.19,55.19,0,0,0,12.27-2.59,13.24,13.24,0,0,1,11.82-11c.42,0,.85-.06,1.27-.06h0a13.28,13.28,0,0,1,5.09,1A56,56,0,0,0,157.52,37.15Z" transform="translate(-3.64)"/><path class="bc883ff1-ebc3-48bb-ab4d-f3f73aafdabf" d="M131.4,35a22.85,22.85,0,0,0-7.13-3.15c6.07-3.79,8.85-9.49,8.23-16C131.49,5.28,121.79-1.54,102.55.3L77.82,2.65A12.61,12.61,0,0,0,66.47,16.39L69.13,44.3q.11.64.24,1.29L74.59,44a6.15,6.15,0,0,1,1.8-.28,6.07,6.07,0,0,1,4.93,2.56,6,6,0,0,1,.78,5.5L78.52,62l.56.52a31.37,31.37,0,0,0,21.08,8.15c1,0,2,0,3-.14a31.52,31.52,0,0,0,28.35-34.32ZM90,18.09l11-1c5.28-.5,7.85,1.06,8.17,4.45s-1.9,5.41-7.18,5.92l-11,1Zm17.66,35.54L93.48,55l-1-11,14.16-1.35c5.18-.49,8,1.15,8.3,4.74S112.82,53.13,107.63,53.63Z" transform="translate(-3.64)"/><path class="bc883ff1-ebc3-48bb-ab4d-f3f73aafdabf" d="M73.4,49.32a3,3,0,0,0-.92.14L52.19,55.73a3.07,3.07,0,0,0-.48,5.67l7.78,3.94A3,3,0,0,1,61,67l2.58,6.61a3.07,3.07,0,0,0,5.76-.1l7-20.07A3.08,3.08,0,0,0,73.4,49.32Z" transform="translate(-3.64)"/><path class="bc883ff1-ebc3-48bb-ab4d-f3f73aafdabf" d="M3.64,176.38V132.47H15.72v43.91Zm10,0V167.5h8.08a5.42,5.42,0,0,0,3.76-1.27,4.43,4.43,0,0,0,1.42-3.48,4.89,4.89,0,0,0-.65-2.56,4.17,4.17,0,0,0-1.79-1.64,6.2,6.2,0,0,0-2.74-.55H13.63v-8.51h7.52a5.22,5.22,0,0,0,3.27-1,4.32,4.32,0,0,0,0-6.16,5.22,5.22,0,0,0-3.27-1H13.63v-8.88h11a15.27,15.27,0,0,1,7,1.51,11.58,11.58,0,0,1,4.66,4.13,11,11,0,0,1,1.66,6,9.75,9.75,0,0,1-3.33,7.65q-3.32,3-9.74,3.39l-.12-4.25q7,.43,10.67,3.82a11.29,11.29,0,0,1,3.7,8.7,12,12,0,0,1-1.92,6.75,12.76,12.76,0,0,1-5.33,4.56,18.33,18.33,0,0,1-8,1.64Z" transform="translate(-3.64)"/><path class="bc883ff1-ebc3-48bb-ab4d-f3f73aafdabf" d="M43.54,176.38V131.24H55.62v45.14Z" transform="translate(-3.64)"/><path class="bc883ff1-ebc3-48bb-ab4d-f3f73aafdabf" d="M75.85,177.12A17.22,17.22,0,0,1,68,175.39a13.34,13.34,0,0,1-5.4-4.81,12.73,12.73,0,0,1-2-7V146H72.7v17.63a3.55,3.55,0,0,0,.4,1.67,2.9,2.9,0,0,0,1.11,1.14,3.27,3.27,0,0,0,1.64.4A3,3,0,0,0,78,166a3.17,3.17,0,0,0,.89-2.32V146H91v17.51a12.9,12.9,0,0,1-1.94,7.06,13.33,13.33,0,0,1-5.37,4.78A17.22,17.22,0,0,1,75.85,177.12Z" transform="translate(-3.64)"/><path class="a72a31ee-3f24-4149-aa74-771e0d0f9e1b" d="M108.1,177.3a22.52,22.52,0,0,1-5.67-.74,24.2,24.2,0,0,1-5.28-2,17.35,17.35,0,0,1-4.1-3L99.4,165a10.76,10.76,0,0,0,3.55,2.34,11.11,11.11,0,0,0,4.35.87,4,4,0,0,0,1.63-.28.86.86,0,0,0,.59-.77,1.4,1.4,0,0,0-1-1.3,17.63,17.63,0,0,0-2.59-.8c-1-.25-2.16-.56-3.33-1a15.24,15.24,0,0,1-3.36-1.61,7.55,7.55,0,0,1-2.59-2.83,9.72,9.72,0,0,1-1-4.66,8.55,8.55,0,0,1,1.64-5.15,11.19,11.19,0,0,1,4.62-3.58,17,17,0,0,1,6.94-1.32,22.85,22.85,0,0,1,7.77,1.35,13.49,13.49,0,0,1,6,4.07L116.18,157a7.7,7.7,0,0,0-3.39-2.31,10.75,10.75,0,0,0-3.09-.59,2.93,2.93,0,0,0-1.63.34,1,1,0,0,0-.46.83c0,.46.32.83,1,1.11a15.3,15.3,0,0,0,2.56.81,29.37,29.37,0,0,1,3.3,1,13.72,13.72,0,0,1,3.3,1.73,8.48,8.48,0,0,1,2.56,2.93,9.94,9.94,0,0,1,1,4.72,8.45,8.45,0,0,1-3.57,7.15Q114.14,177.3,108.1,177.3Z" transform="translate(-3.64)"/><path class="a72a31ee-3f24-4149-aa74-771e0d0f9e1b" d="M125.92,176.38V131.24H138v45.14Zm19.3,0v-17a3.4,3.4,0,0,0-3.58-3.7,4,4,0,0,0-1.88.43,3.13,3.13,0,0,0-1.29,1.26,4.09,4.09,0,0,0-.46,2l-4.69-2.1a12.59,12.59,0,0,1,1.51-6.35,10.2,10.2,0,0,1,4.19-4.07,13.17,13.17,0,0,1,6.26-1.42,13.4,13.4,0,0,1,6.42,1.45,10.3,10.3,0,0,1,4.16,3.95,11.3,11.3,0,0,1,1.45,5.76v19.8Z" transform="translate(-3.64)"/><path class="a72a31ee-3f24-4149-aa74-771e0d0f9e1b" d="M177.78,177.12a18.77,18.77,0,0,1-8.91-2.07,15.79,15.79,0,0,1-6.17-5.7,15.3,15.3,0,0,1-2.25-8.21,15.13,15.13,0,0,1,2.22-8.14,15.72,15.72,0,0,1,6.14-5.64,20.23,20.23,0,0,1,17.79,0,16,16,0,0,1,6.13,5.64,15,15,0,0,1,2.25,8.14,15.37,15.37,0,0,1-8.32,13.91A18.59,18.59,0,0,1,177.78,177.12Zm-.06-10.61a5.37,5.37,0,0,0,2.68-.65,4.37,4.37,0,0,0,1.76-1.85,6,6,0,0,0,.61-2.8,5.86,5.86,0,0,0-.64-2.81,4.62,4.62,0,0,0-1.76-1.85,5.2,5.2,0,0,0-2.65-.65,5,5,0,0,0-2.62.68,4.77,4.77,0,0,0-1.79,1.88,5.86,5.86,0,0,0-.65,2.81,5.69,5.69,0,0,0,.65,2.74,4.56,4.56,0,0,0,1.79,1.85A5.22,5.22,0,0,0,177.72,166.51Z" transform="translate(-3.64)"/><path class="a72a31ee-3f24-4149-aa74-771e0d0f9e1b" d="M198.75,189.33V146h12.08v7.46l-2,7.34,1.66,7.4v21.09ZM217.43,177a14.74,14.74,0,0,1-5.12-.89,11.69,11.69,0,0,1-4.07-2.5,7.44,7.44,0,0,1-2.16-3.7V153.13a8.41,8.41,0,0,1,2.16-3.86,12.35,12.35,0,0,1,4.07-2.8,12.68,12.68,0,0,1,5.12-1.05,15.11,15.11,0,0,1,7.86,2,13.89,13.89,0,0,1,5.24,5.58,17.32,17.32,0,0,1,1.88,8.21,17.13,17.13,0,0,1-1.88,8.17,14.15,14.15,0,0,1-5.24,5.58A14.93,14.93,0,0,1,217.43,177Zm-2.28-10.6a5.23,5.23,0,0,0,2.65-.68,4.76,4.76,0,0,0,1.82-1.85,5.81,5.81,0,0,0,0-5.34,5,5,0,0,0-1.79-1.82,5,5,0,0,0-2.62-.67,5.22,5.22,0,0,0-2.62.64,4.67,4.67,0,0,0-1.79,1.82,5.55,5.55,0,0,0-.65,2.72,5.63,5.63,0,0,0,.62,2.65,4.61,4.61,0,0,0,1.76,1.85A5,5,0,0,0,215.15,166.39Z" transform="translate(-3.64)"/></g></g></svg>