<svg xmlns="http://www.w3.org/2000/svg" viewBox="0 0 44.89 44.89"><defs><style>.bfeed54a-e81e-471f-beb5-dd1e1f9a753e{fill:#4468b1;}</style></defs><g id="aa2c5d46-58d0-4ab4-b472-54e9d5fd87ef" data-name="Layer 2"><g id="b2dbf244-ebf4-4d8c-8adc-111f5993e4c5" data-name="Profile"><path class="bfeed54a-e81e-471f-beb5-dd1e1f9a753e" d="M40.08,0H4.81A4.81,4.81,0,0,0,0,4.81V40.08a4.81,4.81,0,0,0,4.81,4.81H18.56V29.63H12.25V22.45h6.31V17c0-6.23,3.71-9.67,9.39-9.67a37.78,37.78,0,0,1,5.56.49V13.9H30.38c-3.09,0-4.05,1.92-4.05,3.88v4.67h6.89l-1.1,7.18H26.33V44.89H40.08a4.81,4.81,0,0,0,4.81-4.81V4.81A4.81,4.81,0,0,0,40.08,0Z"/></g></g></svg>