<svg xmlns="http://www.w3.org/2000/svg" viewBox="0 0 47.38 44.94"><defs><style>.e85b175c-c95d-41d9-a772-8a8b732134a0{fill:#1280c4;}.ac4a2ee7-4d61-4a09-93f6-741b49cf4456{fill:#0173b2;}.ac0a34f7-8996-40c2-a330-41952cda9c50{fill:none;stroke:#1280c4;stroke-miterlimit:54.33;stroke-width:0.25px;}</style></defs><g id="e6f2e0d9-8f7b-48a9-881a-f07349d613d4" data-name="Layer 2"><g id="b1dc096c-cf8b-4aaa-9353-c2fd71417a7e" data-name="Profile"><path class="e85b175c-c95d-41d9-a772-8a8b732134a0" d="M14.37,44.9c-2.8,0-5.62.09-8.43,0A6.18,6.18,0,0,1,.07,38.64c0-10.73,0-21.46,0-32.2A6.28,6.28,0,0,1,6.25.11C9.7,0,13.17.09,16.64.09c.06,0,.14,0,.17.08s-.2.2-.32.27A22.33,22.33,0,0,0,11,4.84,19.84,19.84,0,0,0,6.05,15C5,21.89,7.13,27.74,12,32.61a1.9,1.9,0,0,1,.29,2.73,10.19,10.19,0,0,1-3.45,3.24c-.15.08-.29.19-.43.28s-.09.28.1.36a1.74,1.74,0,0,0,.15.26c1.19,1.05,2.31,2.17,3.47,3.24.55.5,1.09,1,1.62,1.55C14,44.47,14.32,44.53,14.37,44.9Z"/><path class="ac4a2ee7-4d61-4a09-93f6-741b49cf4456" d="M14.37,44.9c0-.36-.41-.42-.62-.64-.53-.54-1.07-1-1.62-1.55C11,41.64,9.85,40.52,8.66,39.47a1.74,1.74,0,0,1-.15-.26,15.78,15.78,0,0,0,7.71-.61c.85-.26,1.7-.51,2.57-.73a3.05,3.05,0,0,1,1.77.08,25.65,25.65,0,0,0,19.3-.74,22.7,22.7,0,0,0,6.93-4.75c.1-.1.18-.26.36-.27a.78.78,0,0,1,0,.45v6A6.22,6.22,0,0,1,41,44.93H41c-3.71,0-7.41,0-11.11,0H15c-.2,0-.41,0-.62,0Z"/><path class="e85b175c-c95d-41d9-a772-8a8b732134a0" d="M16,21.87c1.55,0,3,0,4.46,0,.82,0,1.26.35,1.34,1a1.15,1.15,0,0,1-1.26,1.37c-1.67,0-3.33,0-5,0-.49,0-1,0-1.44,0a1.52,1.52,0,0,1-1.48-.77,1.56,1.56,0,0,1,.31-1.68l4.78-6.06.27-.36c-.1-.17-.24-.09-.37-.1H14.26a3.84,3.84,0,0,1-.76-.08,1.08,1.08,0,0,1,0-2.1,3.23,3.23,0,0,1,.76-.1h5.5a3.53,3.53,0,0,1,1,.12,1.11,1.11,0,0,1,.72,1.56,7.53,7.53,0,0,1-1,1.6c-1.35,1.71-2.69,3.42-4,5.12-.11.13-.22.27-.38.49Z"/><path class="e85b175c-c95d-41d9-a772-8a8b732134a0" d="M27.91,16.46a1.59,1.59,0,0,1,.93-.7A1.26,1.26,0,0,1,30.42,17c0,2.05,0,4.11,0,6.17a1.22,1.22,0,0,1-.85,1.16,1.24,1.24,0,0,1-1.44-.4c-.18-.22-.25-.26-.5-.06a3.14,3.14,0,0,1-3.13.52,4,4,0,0,1-2.79-3.76,4.26,4.26,0,0,1,2.1-4.48,3.26,3.26,0,0,1,4.1.36Zm-3.64,3.76a2.29,2.29,0,0,0,.43,1.24,1.7,1.7,0,0,0,2.37.34,1.56,1.56,0,0,0,.34-.34,2.59,2.59,0,0,0,0-2.85A1.55,1.55,0,0,0,26.18,18C25.05,17.89,24.26,18.77,24.27,20.22ZM35,20.28a4.38,4.38,0,1,1,8.75-.44,4.29,4.29,0,0,1-4,4.69A4.2,4.2,0,0,1,35,20.28ZM37.62,20a2.27,2.27,0,0,0,.45,1.44,1.67,1.67,0,0,0,2.36.31,1.38,1.38,0,0,0,.3-.29,2.55,2.55,0,0,0,0-2.88A1.58,1.58,0,0,0,39.52,18,1.85,1.85,0,0,0,37.62,20Zm-3.48-1.8c0,1.6,0,3.19,0,4.79a1.33,1.33,0,0,1-1.3,1.35,1.64,1.64,0,0,1-.38,0A1.34,1.34,0,0,1,31.55,23V14.83c0-.49,0-1,0-1.44a1.3,1.3,0,1,1,2.59,0C34.15,15,34.14,16.63,34.14,18.23Z"/><path class="ac0a34f7-8996-40c2-a330-41952cda9c50" d="M6.81.12H40.57a6.69,6.69,0,0,1,6.68,6.69V38a6.68,6.68,0,0,1-6.68,6.69H6.81A6.69,6.69,0,0,1,.12,38V6.81A6.7,6.7,0,0,1,6.81.12Z"/></g></g></svg>